<svg width="63" height="63" viewBox="0 0 63 63" fill="none" xmlns="http://www.w3.org/2000/svg">
<path d="M10.021 9.139C4.50001 14.659 1.50901 21.761 1.03201 29H1.00001V29.441C0.944008 30.519 0.944008 31.599 1.00001 32.676V42V62H21H30.334C30.87 62.028 31.405 62.044 31.942 62.044C39.88 62.044 47.819 59.023 53.862 52.98C58.62 48.222 52.718 34.866 40.427 22.574C28.135 10.281 14.779 4.379 10.021 9.139ZM49.394 44.976C48.144 46.227 45.181 45.945 41.471 44.225C37.343 42.313 32.703 38.893 28.406 34.595C19.163 25.351 15.516 16.115 18.024 13.607C18.54 13.091 19.34 12.836 20.368 12.836C24.333 12.836 31.672 16.648 39.014 23.988C48.255 33.231 51.901 42.468 49.394 44.976ZM30.392 60C23.49 59.634 16.695 56.825 11.434 51.565C6.17801 46.309 3.36901 39.519 3.00001 32.622V29.495C3.29001 24.083 5.08501 18.741 8.38401 14.15C8.60301 20.489 14.228 30.316 23.456 39.544C32.697 48.785 42.529 54.399 48.866 54.604C43.847 58.215 37.926 60.031 32 60.043V60H30.392ZM20.838 59.992C11.043 59.904 3.09701 51.958 3.00801 42.163C4.51501 46.107 6.84701 49.806 10.02 52.98C13.194 56.153 16.893 58.485 20.838 59.992ZM3.00001 60V50.66C4.96801 54.733 8.26701 58.032 12.34 60H3.00001ZM52.447 51.565C49.03 54.982 37.135 50.395 24.87 38.129C12.604 25.863 8.02001 13.968 11.435 10.553C12.167 9.821 13.289 9.456 14.721 9.456C16.325 9.456 18.321 9.919 20.591 10.83C18.934 10.795 17.57 11.233 16.61 12.192C12.781 16.021 17.244 26.259 26.992 36.008C31.452 40.468 36.296 44.029 40.63 46.038C43.086 47.176 45.253 47.747 47.036 47.747C48.622 47.747 49.903 47.295 50.808 46.389C51.763 45.434 52.201 44.079 52.171 42.434C53.882 46.714 53.996 50.017 52.447 51.565Z" fill="black"/>
<path d="M36.3121 36.721C37.5141 37.279 38.4591 37.487 39.2011 37.487C40.1581 37.487 40.7751 37.139 41.1661 36.749C43.2551 34.66 40.5971 29.815 36.8921 26.11C33.1871 22.405 28.3441 19.749 26.2531 21.835C24.1641 23.925 26.8221 28.77 30.5281 32.474C32.4111 34.356 34.4651 35.865 36.3121 36.721ZM27.6661 23.248C27.7711 23.143 27.9571 23.089 28.2111 23.089C29.4611 23.089 32.3621 24.409 35.4771 27.524C39.2251 31.272 40.3741 34.712 39.7511 35.335C39.5661 35.518 38.7891 35.667 37.1521 34.907C35.5131 34.148 33.6631 32.781 31.9411 31.059C28.1921 27.311 27.0431 23.872 27.6661 23.248Z" fill="black"/>
<path d="M53.0001 27H55.0001C55.0001 26.738 54.9291 20.515 48.7071 14.293C42.4851 8.071 36.2621 8 36.0001 8L35.9961 10C36.0531 10 41.6901 10.105 47.2931 15.707C52.8951 21.31 53.0001 26.947 53.0001 27Z" fill="black"/>
<path d="M43.9089 4.004L44.0879 5.996C44.1369 5.989 49.1999 5.614 53.2929 9.707C57.3859 13.8 57.0079 18.862 57.0039 18.909L58.9959 19.091C59.0169 18.847 59.4829 13.07 54.7069 8.293C49.9309 3.518 44.1559 3.982 43.9089 4.004Z" fill="black"/>
<path d="M59.707 3.293C56.451 0.0370002 52.181 0 52 0V2C52.036 2 55.617 2.031 58.293 4.707C60.947 7.361 61 10.967 61 11H63C63 10.819 62.963 6.549 59.707 3.293Z" fill="black"/>
<path d="M13.2924 47.2928L11.2927 49.2924L12.7069 50.7066L14.7066 48.707L13.2924 47.2928Z" fill="black"/>
<path d="M16.2924 44.2929L14.2927 46.2925L15.7069 47.7067L17.7066 45.7071L16.2924 44.2929Z" fill="black"/>
<path d="M19.2924 41.2929L17.2927 43.2925L18.7069 44.7067L20.7066 42.7071L19.2924 41.2929Z" fill="black"/>
</svg>
