<svg width="75" height="75" viewBox="0 0 75 75" fill="none" xmlns="http://www.w3.org/2000/svg">
<g clip-path="url(#clip0_6_64)">
<path d="M37.5 0C16.7884 0 0 16.7884 0 37.5C0 58.2116 16.7884 75 37.5 75C58.2116 75 75 58.2116 75 37.5C75 16.7884 58.2116 0 37.5 0ZM37.5 69.1406C20.0249 69.1406 5.85938 54.9751 5.85938 37.5C5.85938 20.0249 20.0249 5.85938 37.5 5.85938C54.9751 5.85938 69.1406 20.0249 69.1406 37.5C69.1406 54.9751 54.9751 69.1406 37.5 69.1406Z" fill="white"/>
<path fill-rule="evenodd" clip-rule="evenodd" d="M49.2195 18.8627C45.3719 20.9591 41.4032 19.1899 38.5421 18.8627C25.9102 17.4138 21.8955 30.2495 31.0989 35.3947C28.73 36.4658 28.8857 41.9064 31.4216 42.68C25.4433 43.2774 24.3331 50.6177 27.5398 53.6114C31.4399 57.2506 43.4379 57.0081 46.9559 53.6114C49.4118 51.2356 49.755 46.3421 47.6036 44.0854C45.642 42.0232 35.8025 41.7119 35.9536 38.48C36.0589 36.2186 39.618 36.5757 41.7787 35.6761C45.8413 33.9847 48.2309 28.9219 46.6333 25.0263C47.5398 24.8798 48.3133 24.6166 49.2196 24.4679C49.2195 22.6002 49.2195 20.7325 49.2195 18.8627ZM33.6876 30.634C28.9521 21.6481 44.5778 22.2913 39.8376 30.634C38.2835 31.6365 35.2233 31.7372 33.6876 30.634ZM42.4263 48.2877C42.8451 52.316 33.477 52.4946 32.3921 49.6884C31.4811 47.324 32.6164 46.6534 35.3058 46.0446C38.3521 45.3533 42.1447 45.5914 42.4263 48.2877Z" fill="white"/>
</g>
<defs>
<clipPath id="clip0_6_64">
<rect width="75" height="75" fill="white"/>
</clipPath>
</defs>
</svg>
