<svg width="33" height="33" viewBox="0 0 33 33" fill="none" xmlns="http://www.w3.org/2000/svg">
<path d="M23.9326 20.0273C25.1924 18.0453 25.9314 15.6938 25.9314 13.1658C25.9314 6.10273 20.2121 0.375 13.1574 0.375C6.09434 0.375 0.375 6.10273 0.375 13.1658C0.375 20.2289 6.09434 25.9566 13.149 25.9566C15.7105 25.9566 18.0957 25.2008 20.0945 23.9074L20.674 23.5043L29.7947 32.625L32.625 29.7443L23.5127 20.6236L23.9326 20.0273ZM20.3129 6.01875C22.2193 7.9252 23.2691 10.4615 23.2691 13.1574C23.2691 15.8533 22.2193 18.3897 20.3129 20.2961C18.4064 22.2025 15.8701 23.2523 13.1742 23.2523C10.4783 23.2523 7.94199 22.2025 6.03555 20.2961C4.1291 18.3897 3.0793 15.8533 3.0793 13.1574C3.0793 10.4615 4.1291 7.9252 6.03555 6.01875C7.94199 4.1123 10.4783 3.0625 13.1742 3.0625C15.8701 3.0625 18.4064 4.1123 20.3129 6.01875Z" fill="#fff"/>
</svg>
