<svg width="75" height="75" viewBox="0 0 75 75" fill="none" xmlns="http://www.w3.org/2000/svg">
<path d="M0.220306 18.1641C0.220306 15.3797 2.12578 14.2829 4.46952 14.1352L15.382 14.2079C16.0406 14.2079 16.6266 14.6485 16.8469 15.3071C19.3383 23.3649 22.4133 28.3454 26.0766 33.9844C26.2969 34.425 26.6625 34.643 27.0281 34.643C27.3211 34.643 27.6141 34.4954 27.8344 34.1297L28.0547 33.3235L28.1273 20.6532C28.1273 18.8227 27.2484 18.5297 25.1977 18.2368C24.3914 18.0891 23.8781 17.3579 23.8781 16.6243C23.8781 16.4766 23.8781 16.3313 23.9508 16.1836C24.9773 13.0336 28.2 11.4235 32.7398 11.4235L36.8414 11.3508C40.2117 11.3508 43.2867 12.8157 43.2867 17.1375V33.7641C43.5797 33.9844 43.8727 34.1297 44.2383 34.1297C44.8242 34.1297 45.5578 33.7641 46.1437 32.8102C49.9523 27.4641 54.2742 21.0915 54.8601 17.7211C54.8601 17.5735 54.9328 17.5008 55.0078 17.3555C55.8141 15.743 57.8648 14.6461 58.7437 14.3532C58.8914 14.2805 59.1094 14.2055 59.4023 14.2055H70.7555L71.4891 14.2782C72.5883 14.2782 73.3945 15.0118 73.7602 15.6704C74.4187 16.6969 74.2734 17.7938 74.3461 18.2344V18.7477C73.2469 25.4133 65.6297 32.8829 62.407 37.718C61.9664 38.304 61.7484 38.8172 61.7484 39.3305C61.7484 39.7711 61.9687 40.2094 62.3344 40.65L73.0289 54.1266C73.6148 54.9329 73.9078 55.8844 73.9078 56.6907C73.9078 59.1071 71.6367 60.4993 69.4406 60.7196L68.1961 60.7922H57.0633C56.843 60.7922 56.6977 60.8649 56.4773 60.8649C55.2328 60.8649 54.2062 60.2063 53.475 59.4727C51.1312 56.6157 48.8601 53.686 46.5891 50.829C46.1484 50.243 46.0031 50.1704 45.5625 49.8774C45.0492 52.0008 44.6109 54.1993 44.0977 56.3954L43.8773 57.6399C43.5117 58.9594 42.5578 60.3493 40.8 60.7172L39.7734 60.7899H32.5945C19.9242 60.7899 8.57109 42.7711 0.588275 20.2875C0.367963 19.7016 0.22265 18.8954 0.22265 18.1641H0.220306ZM44.2383 37.1344C42.3328 37.1344 40.2094 36.0352 40.2094 33.9844V17.1375C40.2094 15.1594 39.3305 14.4282 36.9141 14.4282L32.7398 14.5758C30.3961 14.5758 29.0766 14.9415 27.9797 15.675C29.6648 16.4813 31.2023 17.5805 31.2023 20.6555V33.5461C30.982 36.1102 28.8586 37.7954 26.8078 37.7954C25.4156 37.7954 24.1711 36.9891 23.4375 35.6719C20.1422 30.6915 17.3578 26.004 14.9414 19.2657L14.2828 17.3602L4.54218 17.2875C3.22265 17.2875 3.37031 17.3602 3.37031 18.0211C3.37031 18.4618 3.44296 19.0477 3.51796 19.4133L5.05546 23.5149C13.0383 44.1704 23.0742 57.7196 32.5945 57.7196H39.9187C40.9453 57.7196 40.8703 56.4751 41.0906 55.7415L42.4828 49.2961C42.7758 48.6376 42.9961 48.0516 43.5094 47.5383C44.0953 46.9524 44.7539 46.7321 45.4148 46.7321C46.807 46.7321 48.1242 47.8313 49.0031 48.8555L55.2281 56.7657C55.7414 57.5719 56.1797 57.7172 56.4726 57.7172H68.557C69.7289 57.7172 70.7555 57.3516 70.7555 56.618C70.7555 56.3977 70.6828 56.1047 70.5351 55.8844L59.9156 42.6282C59.0367 41.529 58.6711 40.4297 58.6711 39.3329C58.6711 38.161 59.1117 36.9891 59.843 35.9625C62.9203 31.3477 69.5109 24.7571 71.0484 19.336L71.2687 18.3844C71.1961 18.0188 71.1961 17.7258 71.1211 17.3579H59.6227C58.8891 17.6508 58.3031 18.0915 57.8648 18.6774L57.4242 20.0696C55.7391 24.7571 51.1242 31.2024 47.8289 35.6696C46.7297 36.6961 45.4828 37.1344 44.2383 37.1344Z" fill="white"/>
</svg>
